<?xml version="1.0" encoding="UTF-8" standalone="no"?>
<!DOCTYPE svg PUBLIC "-//W3C//DTD SVG 1.1//EN"
 "http://www.w3.org/Graphics/SVG/1.1/DTD/svg11.dtd">
<!-- Generated by graphviz version 2.40.1 (20161225.0304)
 -->
<!-- Title: models_diagram Pages: 1 -->
<svg width="656pt" height="476pt"
 viewBox="0.00 0.00 656.34 476.00" xmlns="http://www.w3.org/2000/svg" xmlns:xlink="http://www.w3.org/1999/xlink">
<g id="graph0" class="graph" transform="scale(1 1) rotate(0) translate(4 472)">
<title>models_diagram</title>
<polygon fill="transparent" stroke="transparent" points="-4,4 -4,-472 652.3431,-472 652.3431,4 -4,4"/>
<!-- _diagram_info -->
<g id="node1" class="node">
<title>_diagram_info</title>
<text text-anchor="start" x="8" y="-431.6" font-family="Times,serif" font-size="13.00" fill="#000000">Models diagram</text>
<text text-anchor="start" x="8" y="-417.6" font-family="Times,serif" font-size="13.00" fill="#000000">Date: Feb 08 2019 &#45; 20:20</text>
<text text-anchor="start" x="8" y="-403.6" font-family="Times,serif" font-size="13.00" fill="#000000">Migration version: 20190208230439</text>
<text text-anchor="start" x="8" y="-389.6" font-family="Times,serif" font-size="13.00" fill="#000000">Generated by RailRoady 1.5.3</text>
<text text-anchor="start" x="8" y="-375.6" font-family="Times,serif" font-size="13.00" fill="#000000">http://railroady.prestonlee.com</text>
</g>
<!-- Assignment -->
<g id="node2" class="node">
<title>Assignment</title>
<path fill="none" stroke="#000000" d="M230.5,-.5C230.5,-.5 477.5,-.5 477.5,-.5 483.5,-.5 489.5,-6.5 489.5,-12.5 489.5,-12.5 489.5,-124.5 489.5,-124.5 489.5,-130.5 483.5,-136.5 477.5,-136.5 477.5,-136.5 230.5,-136.5 230.5,-136.5 224.5,-136.5 218.5,-130.5 218.5,-124.5 218.5,-124.5 218.5,-12.5 218.5,-12.5 218.5,-6.5 224.5,-.5 230.5,-.5"/>
<text text-anchor="middle" x="354" y="-121.3" font-family="Times,serif" font-size="14.00" fill="#000000">Assignment</text>
<polyline fill="none" stroke="#000000" points="218.5,-113.5 489.5,-113.5 "/>
<text text-anchor="start" x="226.5" y="-98.3" font-family="Times,serif" font-size="14.00" fill="#000000">id :bigint</text>
<text text-anchor="start" x="226.5" y="-83.3" font-family="Times,serif" font-size="14.00" fill="#000000">user_id :bigint</text>
<text text-anchor="start" x="226.5" y="-68.3" font-family="Times,serif" font-size="14.00" fill="#000000">task_id :bigint</text>
<text text-anchor="start" x="226.5" y="-53.3" font-family="Times,serif" font-size="14.00" fill="#000000">status :boolean</text>
<text text-anchor="start" x="226.5" y="-38.3" font-family="Times,serif" font-size="14.00" fill="#000000">completed_date :timestamp without time zone</text>
<text text-anchor="start" x="226.5" y="-23.3" font-family="Times,serif" font-size="14.00" fill="#000000">created_at :timestamp without time zone</text>
<text text-anchor="start" x="226.5" y="-8.3" font-family="Times,serif" font-size="14.00" fill="#000000">updated_at :timestamp without time zone</text>
</g>
<!-- Task -->
<g id="node3" class="node">
<title>Task</title>
<path fill="none" stroke="#000000" d="M244,-346.5C244,-346.5 464,-346.5 464,-346.5 470,-346.5 476,-352.5 476,-358.5 476,-358.5 476,-455.5 476,-455.5 476,-461.5 470,-467.5 464,-467.5 464,-467.5 244,-467.5 244,-467.5 238,-467.5 232,-461.5 232,-455.5 232,-455.5 232,-358.5 232,-358.5 232,-352.5 238,-346.5 244,-346.5"/>
<text text-anchor="middle" x="354" y="-452.3" font-family="Times,serif" font-size="14.00" fill="#000000">Task</text>
<polyline fill="none" stroke="#000000" points="232,-444.5 476,-444.5 "/>
<text text-anchor="start" x="240" y="-429.3" font-family="Times,serif" font-size="14.00" fill="#000000">id :bigint</text>
<text text-anchor="start" x="240" y="-414.3" font-family="Times,serif" font-size="14.00" fill="#000000">title :character varying</text>
<text text-anchor="start" x="240" y="-399.3" font-family="Times,serif" font-size="14.00" fill="#000000">photo :character varying</text>
<text text-anchor="start" x="240" y="-384.3" font-family="Times,serif" font-size="14.00" fill="#000000">description :character varying</text>
<text text-anchor="start" x="240" y="-369.3" font-family="Times,serif" font-size="14.00" fill="#000000">created_at :timestamp without time zone</text>
<text text-anchor="start" x="240" y="-354.3" font-family="Times,serif" font-size="14.00" fill="#000000">updated_at :timestamp without time zone</text>
</g>
<!-- Task&#45;&gt;Assignment -->
<g id="edge1" class="edge">
<title>Task&#45;&gt;Assignment</title>
<path fill="none" stroke="#131324" d="M308.8963,-338.8152C304.4343,-329.4491 300.601,-319.7076 298,-310 282.2415,-251.1857 283.1737,-232.0562 298,-173 300.2877,-163.8877 303.5399,-154.7027 307.3399,-145.7606"/>
<ellipse fill="none" stroke="#131324" cx="310.8129" cy="-342.6586" rx="4" ry="4"/>
<polygon fill="#131324" stroke="#131324" points="307.3827,-145.665 315.5855,-138.3873 309.4317,-141.1041 311.4807,-136.5432 311.4807,-136.5432 311.4807,-136.5432 309.4317,-141.1041 307.3759,-134.6991 307.3827,-145.665 307.3827,-145.665"/>
</g>
<!-- User -->
<g id="node4" class="node">
<title>User</title>
<path fill="none" stroke="#000000" d="M319,-173.5C319,-173.5 539,-173.5 539,-173.5 545,-173.5 551,-179.5 551,-185.5 551,-185.5 551,-297.5 551,-297.5 551,-303.5 545,-309.5 539,-309.5 539,-309.5 319,-309.5 319,-309.5 313,-309.5 307,-303.5 307,-297.5 307,-297.5 307,-185.5 307,-185.5 307,-179.5 313,-173.5 319,-173.5"/>
<text text-anchor="middle" x="429" y="-294.3" font-family="Times,serif" font-size="14.00" fill="#000000">User</text>
<polyline fill="none" stroke="#000000" points="307,-286.5 551,-286.5 "/>
<text text-anchor="start" x="315" y="-271.3" font-family="Times,serif" font-size="14.00" fill="#000000">id :bigint</text>
<text text-anchor="start" x="315" y="-256.3" font-family="Times,serif" font-size="14.00" fill="#000000">name :character varying</text>
<text text-anchor="start" x="315" y="-241.3" font-family="Times,serif" font-size="14.00" fill="#000000">last_name :character varying</text>
<text text-anchor="start" x="315" y="-226.3" font-family="Times,serif" font-size="14.00" fill="#000000">email :character varying</text>
<text text-anchor="start" x="315" y="-211.3" font-family="Times,serif" font-size="14.00" fill="#000000">avatar :character varying</text>
<text text-anchor="start" x="315" y="-196.3" font-family="Times,serif" font-size="14.00" fill="#000000">created_at :timestamp without time zone</text>
<text text-anchor="start" x="315" y="-181.3" font-family="Times,serif" font-size="14.00" fill="#000000">updated_at :timestamp without time zone</text>
</g>
<!-- Task&#45;&gt;User -->
<g id="edge2" class="edge">
<title>Task&#45;&gt;User</title>
<path fill="none" stroke="#b87ea3" d="M385.7235,-336.9969C388.409,-331.0708 391.1351,-325.0553 393.8447,-319.076"/>
<polygon fill="#b87ea3" stroke="#b87ea3" points="385.6291,-337.2053 377.4026,-344.4562 383.5652,-341.7595 381.5014,-346.3137 381.5014,-346.3137 381.5014,-346.3137 383.5652,-341.7595 385.6001,-348.1711 385.6291,-337.2053 385.6291,-337.2053"/>
<polygon fill="#b87ea3" stroke="#b87ea3" points="393.9534,-318.8361 402.1799,-311.5852 396.0172,-314.2819 398.0811,-309.7277 398.0811,-309.7277 398.0811,-309.7277 396.0172,-314.2819 393.9823,-307.8703 393.9534,-318.8361 393.9534,-318.8361"/>
</g>
<!-- User&#45;&gt;Assignment -->
<g id="edge3" class="edge">
<title>User&#45;&gt;Assignment</title>
<path fill="none" stroke="#18bdbe" d="M396.1667,-165.7645C393.3461,-159.2583 390.4897,-152.6696 387.6627,-146.1486"/>
<ellipse fill="none" stroke="#18bdbe" cx="397.767" cy="-169.4559" rx="4" ry="4"/>
<polygon fill="#18bdbe" stroke="#18bdbe" points="387.5271,-145.8357 387.6782,-134.8708 385.5383,-141.2482 383.5495,-136.6608 383.5495,-136.6608 383.5495,-136.6608 385.5383,-141.2482 379.4207,-138.4507 387.5271,-145.8357 387.5271,-145.8357"/>
</g>
<!-- ApplicationRecord -->
<g id="node5" class="node">
<title>ApplicationRecord</title>
<ellipse fill="none" stroke="#000000" cx="571" cy="-407" rx="77.1866" ry="18"/>
<text text-anchor="middle" x="571" y="-403.3" font-family="Times,serif" font-size="14.00" fill="#000000">ApplicationRecord</text>
</g>
</g>
</svg>
