<?xml version="1.0" encoding="UTF-8" standalone="no"?>
<!DOCTYPE svg PUBLIC "-//W3C//DTD SVG 1.1//EN"
 "http://www.w3.org/Graphics/SVG/1.1/DTD/svg11.dtd">
<!-- Generated by graphviz version 2.40.1 (20161225.0304)
 -->
<!-- Title: models_diagram Pages: 1 -->
<svg width="468pt" height="230pt"
 viewBox="0.00 0.00 468.34 230.00" xmlns="http://www.w3.org/2000/svg" xmlns:xlink="http://www.w3.org/1999/xlink">
<g id="graph0" class="graph" transform="scale(1 1) rotate(0) translate(4 226)">
<title>models_diagram</title>
<polygon fill="transparent" stroke="transparent" points="-4,4 -4,-226 464.3431,-226 464.3431,4 -4,4"/>
<!-- _diagram_info -->
<g id="node1" class="node">
<title>_diagram_info</title>
<text text-anchor="start" x="8" y="-207.6" font-family="Times,serif" font-size="13.00" fill="#000000">Models diagram</text>
<text text-anchor="start" x="8" y="-193.6" font-family="Times,serif" font-size="13.00" fill="#000000">Date: Feb 08 2019 &#45; 20:20</text>
<text text-anchor="start" x="8" y="-179.6" font-family="Times,serif" font-size="13.00" fill="#000000">Migration version: 20190208230439</text>
<text text-anchor="start" x="8" y="-165.6" font-family="Times,serif" font-size="13.00" fill="#000000">Generated by RailRoady 1.5.3</text>
<text text-anchor="start" x="8" y="-151.6" font-family="Times,serif" font-size="13.00" fill="#000000">http://railroady.prestonlee.com</text>
</g>
<!-- Assignment -->
<g id="node2" class="node">
<title>Assignment</title>
<ellipse fill="none" stroke="#000000" cx="259" cy="-18" rx="53.0913" ry="18"/>
<text text-anchor="middle" x="259" y="-14.3" font-family="Times,serif" font-size="14.00" fill="#000000">Assignment</text>
</g>
<!-- Task -->
<g id="node3" class="node">
<title>Task</title>
<ellipse fill="none" stroke="#000000" cx="260" cy="-183" rx="27.8951" ry="18"/>
<text text-anchor="middle" x="260" y="-179.3" font-family="Times,serif" font-size="14.00" fill="#000000">Task</text>
</g>
<!-- Task&#45;&gt;Assignment -->
<g id="edge1" class="edge">
<title>Task&#45;&gt;Assignment</title>
<path fill="none" stroke="#722ba4" d="M255.6007,-156.8769C252.3597,-134.3885 248.8587,-101.0658 251,-72 251.6169,-63.6264 252.7649,-54.5812 254.0026,-46.3322"/>
<ellipse fill="none" stroke="#722ba4" cx="256.2202" cy="-160.9787" rx="4" ry="4"/>
<polygon fill="#722ba4" stroke="#722ba4" points="254.0085,-46.2946 260.0287,-37.129 254.7968,-41.3571 255.585,-36.4196 255.585,-36.4196 255.585,-36.4196 254.7968,-41.3571 251.1413,-35.7102 254.0085,-46.2946 254.0085,-46.2946"/>
</g>
<!-- User -->
<g id="node4" class="node">
<title>User</title>
<ellipse fill="none" stroke="#000000" cx="287" cy="-90" rx="27.0966" ry="18"/>
<text text-anchor="middle" x="287" y="-86.3" font-family="Times,serif" font-size="14.00" fill="#000000">User</text>
</g>
<!-- Task&#45;&gt;User -->
<g id="edge2" class="edge">
<title>Task&#45;&gt;User</title>
<path fill="none" stroke="#cad1d0" d="M268.1043,-155.0851C271.5426,-143.2421 275.5398,-129.4739 278.97,-117.6589"/>
<polygon fill="#cad1d0" stroke="#cad1d0" points="267.994,-155.4652 260.8843,-163.814 266.6,-160.2669 265.2059,-165.0687 265.2059,-165.0687 265.2059,-165.0687 266.6,-160.2669 269.5274,-166.3233 267.994,-155.4652 267.994,-155.4652"/>
<polygon fill="#cad1d0" stroke="#cad1d0" points="279.0219,-117.4798 286.1317,-109.131 280.416,-112.678 281.8101,-107.8763 281.8101,-107.8763 281.8101,-107.8763 280.416,-112.678 277.4886,-106.6216 279.0219,-117.4798 279.0219,-117.4798"/>
</g>
<!-- User&#45;&gt;Assignment -->
<g id="edge3" class="edge">
<title>User&#45;&gt;Assignment</title>
<path fill="none" stroke="#50c021" d="M277.1262,-64.6102C274.7243,-58.4338 272.1444,-51.7999 269.7059,-45.5295"/>
<ellipse fill="none" stroke="#50c021" cx="278.6288" cy="-68.4742" rx="4" ry="4"/>
<polygon fill="#50c021" stroke="#50c021" points="269.6607,-45.4132 270.2302,-34.4621 267.8485,-40.7531 266.0362,-36.0931 266.0362,-36.0931 266.0362,-36.0931 267.8485,-40.7531 261.8422,-37.7242 269.6607,-45.4132 269.6607,-45.4132"/>
</g>
<!-- ApplicationRecord -->
<g id="node5" class="node">
<title>ApplicationRecord</title>
<ellipse fill="none" stroke="#000000" cx="383" cy="-183" rx="77.1866" ry="18"/>
<text text-anchor="middle" x="383" y="-179.3" font-family="Times,serif" font-size="14.00" fill="#000000">ApplicationRecord</text>
</g>
</g>
</svg>
